. 
  
http://www.torrenting.com/        :     Greatest Movie Tracker on The Net!!!
 
http://www.Torrenting.com          :     Once & For all ;)


               www . Torrenting . Com 

(((((((((((((= Enjoy No RAR releases =))))))))))))))))))))


...................................NFO:....................................

.








































          
          
              
              
                    
                    
                    
                    

Missy.and.the.Maxinator.2009.DVDRiP.XviD.AC3-SiC

Poster:
[img]http://leetleech.org/images/99811630799062913615.jpg[/img]

IMDB Link:
http://www.imdb.com/title/tt1362264/

Description:
Max and Missy have been best friends for as long as they can remember, and now Max is falling in love with her. But strange things start happening to him at school. He can see through walls, hear distant voices, and he suddenly has super-human strength! When students start mysteriously disappearing after school Max and his friends stumble upon a sinister plot by his teachers to take over the world. And when they kidnap Missy, Max must put his new found superpowers to the test to save the girl he loves. 

General
Complete name                    : Missy.and.the.Maxinator.2009.DVDRiP.XviD.AC3-SiC.avi
Format                           : AVI
Format/Info                      : Audio Video Interleave
Format profile                   : OpenDML
File size                        : 978 MiB
Duration                         : 1h 38mn
Overall bit rate                 : 1 387 Kbps

Video
ID                               : 0
Format                           : MPEG-4 Visual
Format profile                   : Advanced Simple@L5
Format settings, BVOP            : 2
Format settings, QPel            : No
Format settings, GMC             : No warppoints
Format settings, Matrix          : Default (H.263)
Muxing mode                      : Packed bitstream
Codec ID                         : XVID
Codec ID/Hint                    : XviD
Duration                         : 1h 38mn
Bit rate                         : 934 Kbps
Width                            : 720 pixels
Height                           : 400 pixels
Display aspect ratio             : 16:9
Frame rate                       : 23.976 fps
Color space                      : YUV
Chroma subsampling               : 4:2:0
Bit depth                        : 8 bits
Scan type                        : Progressive
Compression mode                 : Lossy
Bits/(Pixel*Frame)               : 0.135
Stream size                      : 658 MiB (67%)
Writing library                  : XviD 1.2.1 (UTC 2008-12-04)

Audio
ID                               : 1
Format                           : AC-3
Format/Info                      : Audio Coding 3
Mode extension                   : CM (complete main)
Codec ID                         : 2000
Duration                         : 1h 38mn
Bit rate mode                    : Constant
Bit rate                         : 448 Kbps
Channel(s)                       : 6 channels
Channel positions                : Front: L C R, Side: L R, LFE
Sampling rate                    : 48.0 KHz
Bit depth                        : 16 bits
Compression mode                 : Lossy
Stream size                      : 316 MiB (32%)
Alignment                        : Aligned on interleaves
Interleave, duration             : 64 ms (1.53 video frames)
Interleave, preload duration     : 192 ms

Screenshots:
[img]http://leetleech.org/images/99814768279493621250.png[/img]
[img]http://leetleech.org/images/98939143325258070980.png[/img]
[img]http://leetleech.org/images/68365559695304935424.png[/img]
[img]http://leetleech.org/images/99492369951323650032.png[/img]
[img]http://leetleech.org/images/41139066907376535283.png[/img]

Note: Special thanks to imthebest for vob files. Now this was a low budget film and it wasn't all that great a quality. Resized it and ran some smoothing and sharpening as there is alot of noise on the video, I did as much as i could with out losing too much quality to the picture.

Encoder: scumbag

Enjoy!

Respects to CaptainHomey, Cyanide, CM8, Rx, Pirate666, THC, ELEKTRI4KA, Killerhz, 
XtremE, PA, YeFsTe, Empire and everyone in the struggle...

Have something to offer us or a skill you think you can provide, hit us up...